<svg width="108" height="108" viewBox="0 0 108 108" fill="none" xmlns="http://www.w3.org/2000/svg">
<path fill-rule="evenodd" clip-rule="evenodd" d="M60.8051 24.0569C56.9088 20.6477 51.0912 20.6477 47.1949 24.0569L45.7144 25.3524C44.0316 26.8248 41.9167 27.7117 39.687 27.88L37.5671 28.04C32.4731 28.4244 28.4244 32.4731 28.04 37.5671L27.88 39.687C27.7117 41.9167 26.8248 44.0316 25.3524 45.7144L24.0569 47.1949C20.6477 51.0912 20.6477 56.9088 24.0569 60.8051L25.3524 62.2856C26.8248 63.9684 27.7117 66.0833 27.88 68.313L28.04 70.4329C28.4244 75.5269 32.4731 79.5756 37.5671 79.96L39.687 80.12C41.9167 80.2883 44.0316 81.1752 45.7144 82.6476L47.1949 83.9431C51.0912 87.3523 56.9088 87.3523 60.8051 83.9431L62.2856 82.6476C63.9684 81.1752 66.0833 80.2883 68.313 80.12L70.4329 79.96C75.5269 79.5756 79.5756 75.5269 79.96 70.4329L80.12 68.313C80.2883 66.0833 81.1752 63.9684 82.6476 62.2856L83.9431 60.8051C87.3523 56.9088 87.3523 51.0912 83.9431 47.1949L82.6476 45.7144C81.1752 44.0316 80.2883 41.9167 80.12 39.687L79.96 37.5671C79.5756 32.4731 75.5269 28.4244 70.4329 28.04L68.313 27.88C66.0833 27.7117 63.9684 26.8248 62.2856 25.3524L60.8051 24.0569ZM72.8926 63.0969C72.8927 63.0979 72.8923 63.0989 72.8914 63.0995C72.8906 63.1 72.8901 63.101 72.8903 63.1021C72.9058 63.2035 72.9204 63.3052 72.9343 63.4071C72.9733 63.6947 72.7467 63.9466 72.4565 63.9466H35.6035C35.1478 63.9466 34.7911 63.5508 34.86 63.1004L34.8644 63.0726L34.8644 63.0724L34.8644 63.0723C34.8751 63.0037 34.8858 62.9345 34.8973 62.8661C34.9775 62.3825 35.0744 61.9065 35.189 61.436C35.3894 60.6142 35.6419 59.812 35.9429 59.0351C36.1973 58.3772 36.4871 57.7371 36.8086 57.1167C37.2215 56.3192 37.6884 55.5555 38.2046 54.8282C38.8374 53.937 39.5428 53.102 40.3126 52.3326C40.6993 51.9456 41.1028 51.5754 41.5213 51.2221C42.2153 50.6368 42.9507 50.1013 43.7229 49.6176C43.7321 49.6118 43.7347 49.6003 43.7299 49.5906C43.5371 49.2557 43.344 48.921 43.1509 48.5864L43.1505 48.5856L43.149 48.583C42.9564 48.2492 42.7639 47.9154 42.5715 47.5813L41.4393 45.6189C41.169 45.1494 40.8978 44.679 40.6266 44.2095C40.5623 44.098 40.512 43.9827 40.4738 43.8646C40.3685 43.5357 40.3638 43.1899 40.4487 42.8684C40.4692 42.7888 40.4962 42.711 40.5279 42.6351C40.5595 42.5592 40.5968 42.4851 40.6388 42.4139C40.7841 42.1703 40.9892 41.9585 41.2482 41.8038C41.4775 41.6661 41.7337 41.5846 41.9965 41.5621C42.1065 41.5527 42.2174 41.5536 42.3274 41.5649C42.4187 41.5742 42.5091 41.5911 42.5985 41.6145C42.9182 41.6998 43.2145 41.876 43.4456 42.1309C43.5286 42.2227 43.6031 42.324 43.6674 42.4355C43.9377 42.905 44.2089 43.3754 44.4801 43.8449L45.6123 45.8073C45.8039 46.14 45.9957 46.4725 46.1875 46.8049L46.1904 46.8101L46.1915 46.8119L46.1928 46.8141C46.3855 47.1482 46.5782 47.4822 46.7707 47.8165C46.8382 47.9346 46.9828 47.9844 47.1099 47.936C47.2554 47.8806 47.402 47.8269 47.5497 47.7753C49.4723 47.1024 51.5336 46.7276 53.6789 46.706C53.745 46.7051 53.8103 46.7051 53.8764 46.7051C56.2891 46.7051 58.5974 47.1512 60.725 47.9665C60.8258 48.0051 60.9401 47.966 60.9941 47.8725L61.0269 47.8156C61.2198 47.4806 61.4129 47.1458 61.6061 46.811L61.6065 46.8102L61.6141 46.7971C61.8045 46.467 61.995 46.1368 62.1853 45.8064L63.3175 43.844C63.5878 43.3745 63.859 42.904 64.1301 42.4345C64.1944 42.323 64.269 42.2218 64.3519 42.13C64.583 41.8751 64.8794 41.6989 65.199 41.6136C65.2885 41.5902 65.3789 41.5733 65.4702 41.5639C65.5802 41.5527 65.6911 41.5518 65.801 41.5611C66.0638 41.5846 66.3201 41.6661 66.5494 41.8029C66.8084 41.9575 67.0144 42.1693 67.1588 42.413C67.2008 42.4842 67.238 42.5582 67.2697 42.6341C67.3014 42.7101 67.3275 42.7878 67.3489 42.8675C67.4337 43.1889 67.4291 43.5347 67.3238 43.8637C67.2856 43.9818 67.2352 44.097 67.1709 44.2085C66.9007 44.6781 66.6295 45.1485 66.3583 45.618L65.2261 47.5804C65.0331 47.9154 64.84 48.2502 64.6469 48.585L64.6464 48.5858C64.4534 48.9203 64.2605 49.2548 64.0677 49.5896C64.0552 49.61 64.0626 49.6373 64.0828 49.6501C64.9118 50.1728 65.6991 50.7564 66.4366 51.3964C66.7823 51.6954 67.1169 52.0074 67.4403 52.3308C68.2109 53.1001 68.9164 53.9351 69.5482 54.8264C70.0636 55.5536 70.5304 56.3183 70.9442 57.1149C71.2657 57.7353 71.5555 58.3753 71.8099 59.0332C72.1109 59.8101 72.3635 60.6123 72.5639 61.4342C72.6785 61.9046 72.7763 62.3816 72.8555 62.8642C72.8685 62.9415 72.8805 63.0187 72.8926 63.0969ZM64.0729 55.9839C64.701 56.9331 64.5898 58.1178 63.8246 58.6299C63.0593 59.1419 61.9297 58.7875 61.3016 57.8383C60.6735 56.889 60.7847 55.7044 61.55 55.1923C62.3152 54.6802 63.4448 55.0346 64.0729 55.9839ZM46.4822 57.8416C47.1103 56.8923 46.9991 55.7077 46.2339 55.1956C45.4686 54.6835 44.339 55.0379 43.7109 55.9872C43.0828 56.9364 43.194 58.1211 43.9593 58.6332C44.7245 59.1452 45.8541 58.7908 46.4822 57.8416Z" fill="#005320"/>
</svg>
